C:\GBW_MyPrograms\KinderuniversiteitApp\Resultaten\Ellis_v10102025\Reus\Reus_v2.mot
version=1
nRows=13
nColumns=29
inDegrees=yes
endheader
                time	         pelvis_tilt	           pelvis_tx	           pelvis_ty	       hip_flexion_l	       hip_flexion_r	        knee_angle_l	        knee_angle_r	       ankle_angle_l	       ankle_angle_r	    lumbar_extension	hamstrings_r/activation	bifemsh_r/activation	glut_max_r/activation	iliopsoas_r/activation	rect_fem_r/activation	  vasti_r/activation	gastroc_r/activation	 soleus_r/activation	tib_ant_r/activation	hamstrings_l/activation	bifemsh_l/activation	glut_max_l/activation	iliopsoas_l/activation	rect_fem_l/activation	  vasti_l/activation	gastroc_l/activation	 soleus_l/activation	tib_ant_l/activation	
          0.20000005	         -7.61695505	          0.90067599	          0.78386781	         19.60527704	         20.60361088	        -27.93423389	        -26.51227536	          5.51356560	          5.31574493	         -7.67321460	          0.50075863	          0.48795026	          0.52968091	          0.44889152	          0.48506042	          0.51587136	          0.49113200	          0.50719690	          0.44023482	          0.46380587	          0.50406865	          0.46653141	          0.50213077	          0.49094796	          0.45488954	          0.48901733	          0.46667094	          0.48077762	
          0.20200005	         -7.63027445	          1.46928127	          0.78415943	         19.99928765	         20.05912230	        -27.66594799	        -27.09150647	          5.50862538	          5.41285578	         -7.66699618	          0.49977646	          0.48903051	          0.52801452	          0.45053560	          0.48561228	          0.51304762	          0.49348718	          0.50941544	          0.43751711	          0.45657967	          0.50006848	          0.47073796	          0.49448369	          0.49566432	          0.47237493	          0.48384666	          0.47540948	          0.47703896	
          0.20400005	         -7.65171415	          1.62056594	          0.78285604	         20.43034581	         19.48253697	        -27.20820465	        -27.73794455	          5.58939163	          5.46762717	         -7.66063903	          0.50047249	          0.48861481	          0.53077311	          0.44625463	          0.48472505	          0.51519764	          0.48952179	          0.50414487	          0.43952497	          0.44941021	          0.49216993	          0.48429921	          0.48412124	          0.50005591	          0.48889353	          0.47705143	          0.48559957	          0.47008654	
          0.20600005	         -7.66108149	          1.70745389	          0.78331198	         20.94223374	         19.38069271	        -26.65824060	        -27.69867929	          5.59054831	          5.51030129	         -7.65468244	          0.49569910	          0.48470075	          0.53577769	          0.44071426	          0.48700279	          0.52315607	          0.48189286	          0.49532085	          0.44605106	          0.44726759	          0.48639563	          0.49626004	          0.47513499	          0.50154922	          0.50295521	          0.47642395	          0.49596322	          0.46235587	
          0.20800006	         -7.67663253	          1.76308234	          0.78456326	         21.39447872	         19.12789368	        -26.19270001	        -28.82239746	          5.56776038	          5.55908103	         -7.64937379	          0.49019617	          0.48225748	          0.53802895	          0.43976257	          0.48872289	          0.52707043	          0.47538677	          0.48565690	          0.45283847	          0.44465526	          0.48244919	          0.50544573	          0.46780595	          0.50222687	          0.51464213	          0.47772477	          0.50491465	          0.45560822	
          0.21000006	         -7.65268551	          1.80013643	          0.78538665	         21.21161573	         20.36482051	        -26.76219296	        -26.98805755	          5.65028032	          5.57721958	         -7.64611738	          0.48042139	          0.48309836	          0.52913846	          0.45248092	          0.49334303	          0.51917447	          0.47022195	          0.47531900	          0.46055549	          0.43628445	          0.48022323	          0.50242103	          0.46967463	          0.50598946	          0.52401663	          0.47980413	          0.51183165	          0.45050432	
          0.21200006	         -7.62033278	          1.82530274	          0.78572763	         21.68734178	         21.63690418	        -26.55128102	        -25.03640491	          5.60093700	          5.63875187	         -7.64364211	          0.48150527	          0.48586212	          0.52285598	          0.46008735	          0.49192362	          0.50839911	          0.46526729	          0.46457683	          0.46835051	          0.44203052	          0.47851346	          0.50890439	          0.46381081	          0.50477422	          0.53212630	          0.48016877	          0.51642390	          0.44702489	
          0.21400006	         -7.66993838	          1.84260112	          0.78627362	         21.66866192	         21.34935091	        -27.03622891	        -25.52838069	          5.53874418	          5.64445841	         -7.64022394	          0.48682467	          0.48937217	          0.51786707	          0.46581148	          0.48840769	          0.49629918	          0.46094542	          0.45318187	          0.47606292	          0.44945062	          0.47674199	          0.51574376	          0.45754104	          0.50275607	          0.53888218	          0.47961888	          0.51946709	          0.44450354	
          0.21600006	         -7.76128161	          1.85460122	          0.78658321	         21.33006996	         20.36424446	        -28.58506129	        -26.58068810	          5.45972466	          5.57259201	         -7.63568999	          0.49091162	          0.49361859	          0.51088955	          0.47263154	          0.48524173	          0.48367963	          0.45729441	          0.44143320	          0.48359061	          0.45270194	          0.47515639	          0.52082218	          0.45279893	          0.50185883	          0.54412455	          0.47900726	          0.52127700	          0.44279702	
          0.21800006	         -7.84798500	          1.86300152	          0.78634426	         21.44677463	         19.30120773	        -30.41758904	        -27.66061304	          5.36596815	          5.41583770	         -7.63034816	          0.49478182	          0.49767407	          0.50377506	          0.47770537	          0.48233326	          0.47145496	          0.45412278	          0.42985666	          0.49015288	          0.45444789	          0.47427178	          0.52387498	          0.44995292	          0.50138039	          0.54737967	          0.47959806	          0.52237100	          0.44134510	
          0.22000006	         -7.87399085	          1.86894095	          0.78576707	         22.45449577	         19.28416416	        -32.97462754	        -28.56516822	          5.27708701	          5.15562026	         -7.62616611	          0.49578742	          0.49959299	          0.49901045	          0.47862383	          0.48132696	          0.46115105	          0.45244461	          0.42080399	          0.49213750	          0.45352980	          0.47482991	          0.52382748	          0.45108066	          0.50104985	          0.54712344	          0.48119907	          0.52212265	          0.44124769	
          0.22200006	         -7.82344454	          1.87316894	          0.78444151	         24.40149961	         20.00660476	        -35.19466612	        -29.30220398	          5.20422029	          4.78156515	         -7.62347351	          0.49408315	          0.49954062	          0.49615806	          0.47734029	          0.48202757	          0.45865830	          0.45536045	          0.42647960	          0.48834246	          0.44995414	          0.47731824	          0.51869300	          0.45910251	          0.50153273	          0.54160879	          0.48397780	          0.52074551	          0.44269944	
          0.22400006	         -7.75244697	          1.87619677	          0.78489699	         25.41650064	         20.93565204	        -35.78476292	        -29.62140839	          5.15572789	          4.44244990	         -7.62226701	          0.49673378	          0.49954273	          0.49844822	          0.47358758	          0.48060397	          0.45931688	          0.46269425	          0.43745855	          0.48248030	          0.44981525	          0.48120669	          0.51350127	          0.46720688	          0.50096831	          0.53306724	          0.48781476	          0.51929295	          0.44405164	
